<svg width="2362" height="2500" viewBox="0 0.01 700 740.988" xmlns="http://www.w3.org/2000/svg" xmlns:xlink="http://www.w3.org/1999/xlink" overflow="hidden"><linearGradient x1="272.113" y1="461.015" x2="42.553" y2="455.036" gradientUnits="userSpaceOnUse" id="a" gradientTransform="matrix(1.0781 0 0 -1.0781 4.925 776.988)"><stop offset="0" stop-color="#FFE200"/><stop offset="1" stop-color="#F08300"/></linearGradient><linearGradient x1="277.554" y1="491.414" x2="73.14" y2="633.921" gradientUnits="userSpaceOnUse" id="b" gradientTransform="matrix(1.0781 0 0 -1.0781 4.925 776.988)"><stop offset="0" stop-color="#FFE200"/><stop offset="1" stop-color="#F08300"/></linearGradient><linearGradient x1="302.594" y1="514.896" x2="229.159" y2="734.097" gradientUnits="userSpaceOnUse" id="c" gradientTransform="matrix(1.0781 0 0 -1.0781 4.925 776.988)"><stop offset="0" stop-color="#FFE200"/><stop offset="1" stop-color="#F08300"/></linearGradient><linearGradient x1="370.88" y1="456.109" x2="595.644" y2="456.109" gradientUnits="userSpaceOnUse" id="d" gradientTransform="matrix(1.0781 0 0 -1.0781 4.925 776.988)"><stop offset="0" stop-color="#FFE200"/><stop offset="1" stop-color="#F08300"/></linearGradient><linearGradient x1="363.219" y1="492.096" x2="567.064" y2="633.817" gradientUnits="userSpaceOnUse" id="e" gradientTransform="matrix(1.0781 0 0 -1.0781 4.925 776.988)"><stop offset="0" stop-color="#FFE200"/><stop offset="1" stop-color="#F08300"/></linearGradient><linearGradient x1="337.5" y1="514.831" x2="410.838" y2="734.119" gradientUnits="userSpaceOnUse" id="f" gradientTransform="matrix(1.0781 0 0 -1.0781 4.925 776.988)"><stop offset="0" stop-color="#FFE200"/><stop offset="1" stop-color="#F08300"/></linearGradient><path d="M603.258 278.991C603.258 417.706 490.785 530.176 352.07 530.176 213.341 530.176 100.886 417.706 100.886 278.991 100.886 140.277 213.341 27.807 352.07 27.807 490.785 27.807 603.258 140.276 603.258 278.991Z" fill="#FFFFFF"/><path d="M349.908 297.896 96.533 369.616C103.899 397.764 92.485 435.55 108.987 458.399 126.248 482.296 168.279 482.573 192 500.05 215.808 517.539 228.899 557.732 257.597 567.109 285.499 576.271 319.965 551.976 350.962 551.946 380.966 551.885 414.427 576.396 441.51 567.778 469.948 558.613 483.053 518.726 506.847 501.633 530.732 484.398 572.733 484.536 590.197 460.862 607.686 437.145 593.589 398.493 602.862 369.904L349.908 297.896Z" fill="#C7000D"/><path d="M296.325 278.931C296.325 274.944 294.008 271.547 290.629 269.933L95.027 204.67C84.355 231.252 52.871 255.638 52.931 285.31 53.009 314.964 86.469 339.095 95.467 365.872L290.28 288.128C293.839 286.587 296.325 283.069 296.325 278.931Z" fill="url(#a)"/><path d="M297.737 250.976 297.841 250.976C301.643 250.942 305.289 248.771 306.981 245.09 308.349 242.134 308.078 238.846 306.662 236.196L190.977 70.037C166.634 85.214 127.529 86.052 110.812 108.78 93.365 132.388 105.483 172.124 96.472 200.699L297.737 250.976Z" fill="url(#b)"/><path d="M334.106 226.168C337.43 224.794 339.741 221.717 340.134 218.142L347.703 17.578C318.307 16.512 285.955-6.584 259.481 1.865 231.181 10.97 218.076 50.568 194.48 67.72L323.252 224.14C326.071 226.868 330.317 227.778 334.106 226.168Z" fill="url(#c)"/><path d="M404.76 278.737 404.76 279.112C404.83 283.038 407.186 286.562 410.788 288.127L604.549 365.871C613.533 339.095 647.024 314.964 647.071 285.309 647.114 255.637 615.647 231.251 605.023 204.669L410.468 269.933C407.142 271.521 404.833 274.832 404.76 278.737Z" fill="url(#d)"/><path d="M402.676 250.079 402.783 250.079 603.578 200.699C594.533 172.123 606.607 132.388 589.221 108.779 572.46 86.05 533.368 85.214 509.039 70.037L393.873 235.285C392.428 237.966 392.216 241.236 393.571 244.175 395.2 247.746 398.751 250.049 402.676 250.079Z" fill="url(#e)"/><path d="M365.879 226.168C362.47 224.735 360.291 221.599 359.851 218.142L351.98 17.577C381.406 16.511 414.09-6.585 440.534 1.864 468.821 10.969 481.956 50.567 505.51 67.719L376.763 224.14C373.872 226.942 369.585 227.74 365.879 226.168Z" fill="url(#f)"/><path d="M0 738.232 26.474 738.232 29.763 714.623 45.354 714.623C64.41 714.623 78.37 703.054 81.675 684.161 85.555 661.903 72.509 653.515 48.107 653.515L11.695 653.515 0 738.232ZM55.797 682.927C54.226 690.708 49.707 695.912 41.06 695.912L32.671 695.912 35.882 671.267 43.053 671.267C52.478 671.267 57.316 675.207 55.797 682.927ZM151.566 679.699C145.904 673.869 136.998 670.93 125.062 670.93 112.547 670.93 102.35 674.05 94.811 680.264 87.216 686.521 82.724 694.267 81.459 703.372L80.868 707.696C79.435 718.061 82.115 726.083 88.86 731.55 95.345 736.832 104.766 739.494 116.823 739.494 123.007 739.494 128.608 739.055 133.511 738.096 138.456 737.211 143.099 735.809 147.32 734.014L148.644 733.453 148.839 732.08 150.241 721.884 150.668 718.837 147.699 719.886C143.129 721.456 138.702 722.691 134.498 723.45 130.312 724.226 126.248 724.624 122.382 724.624 116.75 724.624 112.335 723.42 109.246 720.999 106.704 719.065 105.621 715.566 105.958 710.634L157.107 710.634 157.396 708.502 158.172 702.793C159.48 693.37 157.275 685.59 151.566 679.699ZM107.934 697.664C109.06 693.322 110.86 690.172 113.372 688.316 116.462 686.034 119.642 684.937 123.142 684.937 127.177 684.937 130.146 686.034 132.247 688.316 134.042 690.219 134.943 693.37 134.943 697.664L107.934 697.664ZM212.808 672.623 192.94 672.623 195.698 653.515 171.079 653.515 161.918 715.733C160.896 723.087 162.376 728.856 166.272 732.878 170.121 736.849 175.83 739.01 183.244 738.877 194.861 738.661 201.04 735.921 201.04 735.921L202.974 719.569C202.974 719.569 197.433 721.308 193.355 721.442 186.17 721.702 186.593 716.967 186.943 714.305L190.158 690.023 210.069 690.023 212.808 672.623ZM341.993 679.747C335.676 673.882 326.268 670.931 313.952 670.931 301.77 670.931 291.544 673.869 283.595 679.717 275.499 685.637 270.688 693.582 269.394 703.222L268.829 707.119C267.444 716.996 270.094 725.006 276.67 730.848 283.126 736.587 292.55 739.495 304.649 739.495 316.827 739.495 326.981 736.682 334.87 731.033 342.861 725.306 347.656 717.284 349.071 707.118L349.606 703.221C350.931 693.629 348.341 685.715 341.993 679.747ZM295.212 704.758C296.2 697.448 298.224 692.305 301.223 689.534 304.192 686.703 307.708 685.361 311.882 685.361 315.899 685.361 319.019 686.655 321.44 689.304 323.741 691.907 324.409 697.098 323.343 704.757L323.209 705.655C322.126 713.676 319.964 719.096 316.995 721.426 313.828 723.877 310.375 725.077 306.401 725.077 301.999 725.077 298.789 723.877 296.614 721.395 295.151 719.721 293.706 715.656 295.073 705.654L295.212 704.758ZM432.662 655.356C430.56 654.412 427.626 653.699 423.79 653.09 420.058 652.508 415.311 652.236 409.691 652.236 396.37 652.236 384.525 656.121 374.587 663.762 364.537 671.494 358.509 681.813 356.761 694.526L356.351 697.741C354.448 711.377 357.507 721.886 365.452 728.992 373.246 735.949 384.177 739.496 397.925 739.496 403.315 739.496 408.187 739.134 412.446 738.296 416.848 737.472 419.89 736.587 421.78 735.616L422.955 735.038 423.136 733.773 424.793 721.686 425.221 718.748 422.299 719.663C420.197 720.302 417.349 721.048 413.85 721.82 410.423 722.584 406.268 722.951 401.487 722.951 394.716 722.951 389.857 720.88 386.616 716.677 383.328 712.491 382.323 705.746 383.587 696.706L383.722 695.561C384.895 687.16 387.924 680.493 392.749 675.785 397.517 671.068 403.498 668.799 411.002 668.799 415.158 668.799 418.782 669.088 421.795 669.684 424.794 670.292 427.142 670.931 428.816 671.617L431.54 672.757 431.984 669.654 433.672 657.338 433.887 655.923 432.662 655.356ZM503.575 676.807C500.485 673.182 495.475 671.34 488.639 671.34 482.033 671.34 476.216 672.53 471.391 674.874 468.681 676.198 466.26 677.614 464.146 679.137L467.404 655.616 467.694 653.513 442.467 653.513 442.195 655.616 431.096 736.104 430.79 738.231 455.987 738.231 456.259 736.104 462.227 692.959C463.78 691.742 465.635 690.72 467.785 689.93 470.306 689.006 472.971 688.537 475.656 688.545 478.047 688.545 479.734 689.002 480.558 689.882 481.378 690.706 481.654 691.712 481.486 693.002L475.535 736.104 475.212 738.231 500.409 738.231 500.728 736.104 506.648 693.05C507.641 685.896 506.617 680.428 503.575 676.807ZM619.989 676.807C616.929 673.182 611.902 671.34 605.084 671.34 598.447 671.34 592.647 672.53 587.806 674.874 585.109 676.198 582.675 677.614 580.543 679.137L581.014 673.109 555.804 673.109 547.51 736.104 547.203 738.231 572.401 738.231 572.72 736.104 578.641 692.959C580.207 691.742 582.08 690.72 584.229 689.93 586.75 689.007 589.415 688.538 592.1 688.545 594.46 688.545 596.148 689.002 596.985 689.882 597.779 690.706 598.098 691.712 597.913 693.002L591.963 736.104 591.674 738.231 616.854 738.231 617.186 736.104 623.093 693.05C624.097 685.896 623.048 680.428 619.989 676.807ZM524.534 665.161C526.791 667.216 529.712 668.268 533.181 668.268 536.728 668.268 539.926 667.215 542.713 665.161 545.695 663.047 547.43 660.289 547.874 657.018 548.297 653.881 547.339 651.188 544.978 649.039 542.712 646.985 539.834 645.967 536.27 645.967 532.783 645.967 529.59 646.986 526.754 649.01 523.79 651.158 522.081 653.852 521.598 657.019 521.156 660.306 522.148 663.047 524.534 665.161ZM522.39 672.623 520.258 672.623 519.969 674.754 511.507 736.104 511.218 738.232 536.41 738.232 536.699 736.104 545.165 674.754 545.468 672.623 543.323 672.623ZM273.049 671.099C273.049 671.099 261.89 669.015 244.292 682.56L245.509 672.622 221.209 672.622 212.151 738.231 237.331 738.231 239.691 721.397C239.691 721.397 240.606 711.105 245.461 705.257 250.274 699.415 253.091 695.881 267.551 694.603L273.049 671.099ZM696.287 673.672C681.779 659.543 638.592 672.727 638.592 672.727L636.503 687.843C648.59 681.055 666.571 682.03 671.914 684.603 676.436 686.764 674.727 691.149 674.137 694.087 669.295 692.564 631.467 687.8 625.603 716.997 621.007 739.648 643.597 743.243 656.661 739.941 675.553 735.129 679.906 735.129 691.325 739.802 691.264 739.802 698.588 696.02 698.588 696.02 699.743 687.523 701.966 679.182 696.287 673.672ZM669.386 723.043 662.02 724.627C652.124 725.783 647.663 721.109 649.199 714.503 652.047 702.156 672.186 707.681 672.186 707.681L669.386 723.043Z"/></svg>